<svg id="Capa_1" enable-background="new 0 0 512.012 512.012" height="512" viewBox="0 0 512.012 512.012" width="512" xmlns="http://www.w3.org/2000/svg"><g><path d="m97.006 325.006c-4.142 0-7.5 3.357-7.5 7.5s3.358 7.5 7.5 7.5h76.5c4.142 0 7.5-3.357 7.5-7.5s-3.358-7.5-7.5-7.5z"/><path d="m414.006 295.006h-27.425c-4.142 0-7.5 3.357-7.5 7.5s3.358 7.5 7.5 7.5h27.425c4.142 0 7.5-3.357 7.5-7.5s-3.358-7.5-7.5-7.5z"/><path d="m97.006 250.006h25.702c4.142 0 7.5-3.357 7.5-7.5s-3.358-7.5-7.5-7.5h-25.702c-4.142 0-7.5 3.357-7.5 7.5s3.358 7.5 7.5 7.5z"/><path d="m119.506 182.506c0 4.143 3.358 7.5 7.5 7.5h90.17c4.142 0 7.5-3.357 7.5-7.5s-3.358-7.5-7.5-7.5h-90.17c-4.142 0-7.5 3.357-7.5 7.5z"/><path d="m308.506 140.006c4.142 0 7.5-3.357 7.5-7.5s-3.358-7.5-7.5-7.5h-106c-4.142 0-7.5 3.357-7.5 7.5s3.358 7.5 7.5 7.5z"/><path d="m508.382 401.955c-3.421-4.537-8.643-7.139-14.326-7.139h-5.303v-300.204c0-15.226-12.386-27.612-27.611-27.612h-75.009c-4.142 0-7.5 3.357-7.5 7.5s3.358 7.5 7.5 7.5h75.009c6.954 0 12.611 5.658 12.611 12.612v300.204h-68.577c-4.142 0-7.5 3.357-7.5 7.5s3.358 7.5 7.5 7.5h88.88c1.276 0 2.02.733 2.35 1.171s.831 1.354.478 2.588c-2.767 9.678-11.729 16.437-21.794 16.437h-169.859v-20.195h64.796c4.142 0 7.5-3.357 7.5-7.5s-3.358-7.5-7.5-7.5h-331.769v-107.641c0-4.143-3.358-7.5-7.5-7.5s-7.5 3.357-7.5 7.5v107.641h-5.303c-5.682 0-10.902 2.602-14.324 7.137-3.421 4.535-4.489 10.271-2.93 15.733 4.594 16.089 19.488 27.325 36.22 27.325h438.169c16.726 0 31.619-11.231 36.218-27.32 1.562-5.465.496-11.2-2.926-15.737zm-218.151 28.057h-67.457v-20.195h67.457zm-275.106-16.445c-.351-1.227.15-2.144.48-2.58.33-.438 1.074-1.171 2.35-1.171h189.819v20.195h-170.853c-10.068.001-19.031-6.761-21.796-16.444z"/><path d="m30.758 259.569c4.142 0 7.5-3.357 7.5-7.5v-157.457c0-6.954 5.657-12.612 12.612-12.612h300.158c4.142 0 7.5-3.357 7.5-7.5s-3.358-7.5-7.5-7.5h-300.158c-15.225 0-27.611 12.387-27.611 27.612v157.457c-.001 4.143 3.357 7.5 7.499 7.5z"/><path d="m333.441 169.793-5.213 5.213h-81.052c-4.142 0-7.5 3.357-7.5 7.5s3.358 7.5 7.5 7.5h66.052l-15 15h-201.222c-4.142 0-7.5 3.357-7.5 7.5s3.358 7.5 7.5 7.5h186.222l-15 15h-115.52c-4.142 0-7.5 3.357-7.5 7.5s3.358 7.5 7.5 7.5h100.52l-8.789 8.789c-1.891 1.891-3.543 3.982-4.992 6.211h-142.441c-4.142 0-7.5 3.357-7.5 7.5s3.358 7.5 7.5 7.5h134.747l-7.347 15h-127.4c-4.142 0-7.5 3.357-7.5 7.5s3.358 7.5 7.5 7.5h120.053l-9.413 19.219c-2.727 5.564-1.614 12.247 2.767 16.628 2.782 2.783 6.493 4.248 10.256 4.247 2.162 0 4.342-.483 6.372-1.478l60.209-29.49c3.796-1.86 7.235-4.317 10.221-7.304l1.822-1.822h57.287c4.142 0 7.5-3.357 7.5-7.5s-3.358-7.5-7.5-7.5h-42.286l15-15h75.212c4.142 0 7.5-3.357 7.5-7.5s-3.358-7.5-7.5-7.5h-60.211l15-15h54.711c4.142 0 7.5-3.357 7.5-7.5s-3.358-7.5-7.5-7.5h-39.711l12.173-12.173c1.71.482 3.493.745 5.318.745 5.209 0 10.106-2.028 13.789-5.711l26.163-26.162c3.683-3.684 5.711-8.581 5.711-13.789 0-1.826-.263-3.609-.746-5.32l14.934-14.934c4.25-4.25 6.59-9.899 6.59-15.909 0-6.011-2.341-11.66-6.59-15.909l-21.213-21.215c-8.773-8.771-23.047-8.771-31.82 0l-14.94 14.941c-6.576-1.851-13.938-.205-19.101 4.958l-26.164 26.164c-5.163 5.164-6.809 12.526-4.958 19.101zm19.454 22.972-28.384 28.385c-2.929 2.93-2.929 7.678 0 10.607 1.464 1.464 3.384 2.196 5.303 2.196s3.839-.732 5.303-2.196l28.385-28.385 10.607 10.606-85.56 85.56-10.607-10.606 32.441-32.441c2.929-2.93 2.929-7.678 0-10.607-2.929-2.928-7.678-2.928-10.606 0l-32.442 32.442-10.606-10.606 85.56-85.56zm-91.31 122.235-20.318-20.318 6.974-14.238 27.583 27.583zm-39.823 19.506 12.531-25.584 13.053 13.053zm187.449-219.27c2.925-2.925 7.684-2.923 10.607-.001l21.213 21.215c1.417 1.416 2.197 3.299 2.197 5.303 0 2.003-.78 3.887-2.197 5.303l-13.182 13.182-31.819-31.82zm-30.859 18.583c1.152 0 2.305.439 3.182 1.316l39.599 39.599c.85.85 1.317 1.979 1.317 3.182s-.468 2.332-1.318 3.182l-7.778 7.778-45.962-45.962 7.778-7.778c.877-.878 2.029-1.317 3.182-1.317zm-29.346 27.48 7.778-7.778 45.962 45.962-7.778 7.778c-.85.85-1.979 1.317-3.182 1.317-1.202 0-2.332-.468-3.181-1.317v-.001l-19.799-19.799-19.798-19.798c-1.756-1.755-1.756-4.61-.002-6.364z"/></g></svg>